<svg xmlns="http://www.w3.org/2000/svg" xmlns:xlink="http://www.w3.org/1999/xlink" width="2000" zoomAndPan="magnify" viewBox="0 0 1500 1499.999933" height="2000" preserveAspectRatio="xMidYMid meet" version="1.0"><path fill="#ffffff" d="M 168.882812 637.371094 L 168.882812 1337.292969 C 168.882812 1338.128906 168.960938 1338.953125 169.125 1339.773438 C 169.289062 1340.589844 169.527344 1341.382812 169.847656 1342.15625 C 170.167969 1342.925781 170.558594 1343.660156 171.023438 1344.351562 C 171.484375 1345.046875 172.011719 1345.6875 172.601562 1346.277344 C 173.191406 1346.867188 173.835938 1347.394531 174.527344 1347.859375 C 175.222656 1348.320312 175.953125 1348.714844 176.726562 1349.03125 C 177.496094 1349.351562 178.292969 1349.59375 179.109375 1349.753906 C 179.925781 1349.917969 180.753906 1350 181.589844 1350 L 1268.121094 1350 C 1268.957031 1350 1269.78125 1349.917969 1270.601562 1349.753906 C 1271.417969 1349.59375 1272.214844 1349.351562 1272.984375 1349.03125 C 1273.753906 1348.714844 1274.488281 1348.320312 1275.179688 1347.859375 C 1275.875 1347.394531 1276.515625 1346.867188 1277.105469 1346.277344 C 1277.695312 1345.6875 1278.222656 1345.046875 1278.6875 1344.351562 C 1279.152344 1343.660156 1279.542969 1342.925781 1279.863281 1342.15625 C 1280.179688 1341.382812 1280.421875 1340.589844 1280.585938 1339.773438 C 1280.746094 1338.953125 1280.828125 1338.125 1280.828125 1337.292969 L 1280.828125 637.371094 C 1280.800781 635.074219 1280.203125 632.9375 1279.03125 630.957031 L 1279.75 630.359375 L 1280.347656 629.878906 C 1280.757812 629.542969 1281.117188 629.164062 1281.429688 628.742188 L 1281.96875 628.140625 L 1282.867188 626.761719 C 1283.003906 626.582031 1283.101562 626.382812 1283.167969 626.164062 C 1283.539062 625.476562 1283.839844 624.753906 1284.066406 624.007812 L 1329.019531 467.683594 C 1329.25 466.882812 1329.398438 466.066406 1329.46875 465.234375 C 1329.535156 464.40625 1329.523438 463.578125 1329.429688 462.75 C 1329.335938 461.921875 1329.160156 461.109375 1328.90625 460.316406 C 1328.652344 459.523438 1328.324219 458.761719 1327.921875 458.03125 C 1327.519531 457.304688 1327.046875 456.621094 1326.511719 455.984375 C 1325.972656 455.347656 1325.378906 454.769531 1324.726562 454.25 C 1324.074219 453.730469 1323.378906 453.28125 1322.640625 452.898438 C 1321.898438 452.515625 1321.128906 452.210938 1320.328125 451.976562 L 1233.894531 426.921875 L 1136.253906 398.871094 L 1050.539062 374.234375 L 926.402344 338.273438 L 853.457031 317.292969 L 757.851562 290.257812 L 707.800781 275.8125 L 572.15625 236.851562 L 559.332031 233.136719 L 381.609375 182.066406 L 287.382812 154.914062 L 276.054688 151.679688 C 275.253906 151.449219 274.4375 151.300781 273.605469 151.230469 C 272.777344 151.164062 271.949219 151.175781 271.121094 151.269531 C 270.292969 151.363281 269.480469 151.539062 268.6875 151.792969 C 267.894531 152.046875 267.132812 152.375 266.40625 152.777344 C 265.675781 153.179688 264.992188 153.652344 264.355469 154.1875 C 263.71875 154.726562 263.144531 155.320312 262.625 155.972656 C 262.105469 156.625 261.652344 157.320312 261.269531 158.058594 C 260.886719 158.800781 260.582031 159.570312 260.351562 160.371094 L 215.453125 316.691406 C 215.011719 318.328125 214.910156 319.984375 215.152344 321.660156 C 215.390625 323.335938 215.953125 324.898438 216.832031 326.34375 C 217.648438 327.800781 218.710938 329.046875 220.019531 330.085938 C 221.328125 331.121094 222.78125 331.875 224.386719 332.335938 L 296.375 353.195312 L 390.660156 380.289062 L 486.984375 407.980469 L 496.09375 410.621094 L 886.78125 522.828125 L 956.671875 542.96875 L 1051.019531 570.058594 L 1081.589844 578.871094 L 1240.429688 624.726562 L 181.589844 624.726562 C 180.757812 624.726562 179.933594 624.804688 179.117188 624.96875 C 178.300781 625.128906 177.507812 625.371094 176.738281 625.6875 C 175.96875 626.003906 175.238281 626.394531 174.546875 626.855469 C 173.855469 627.316406 173.214844 627.839844 172.625 628.425781 C 172.035156 629.011719 171.507812 629.652344 171.042969 630.339844 C 170.578125 631.03125 170.1875 631.761719 169.867188 632.527344 C 169.542969 633.296875 169.300781 634.085938 169.136719 634.902344 C 168.96875 635.71875 168.886719 636.539062 168.882812 637.371094 Z M 363.507812 787.222656 L 309.980469 650.019531 L 382.925781 650.019531 L 436.453125 787.34375 Z M 561.726562 787.222656 L 508.203125 650.019531 L 576.472656 650.019531 L 630 787.34375 Z M 754.976562 787.222656 L 701.449219 650.019531 L 773.675781 650.019531 L 827.203125 787.34375 Z M 952.476562 787.222656 L 898.949219 650.019531 L 969.859375 650.019531 L 1023.386719 787.34375 Z M 1148.722656 787.222656 L 1095.195312 649.898438 L 1169.519531 649.898438 L 1223.046875 787.222656 Z M 392.457031 211.558594 L 462.585938 231.757812 L 476.074219 378.429688 L 405.945312 358.292969 Z M 583.007812 266.34375 L 648.402344 285.105469 L 661.886719 431.839844 L 596.492188 413.078125 Z M 768.820312 319.75 L 838.230469 339.710938 L 851.71875 486.445312 L 782.1875 466.484375 Z M 958.589844 374.355469 L 1026.804688 393.957031 L 1040.167969 540.808594 L 972.078125 521.089844 Z M 1147.222656 428.300781 L 1218.671875 448.859375 L 1232.15625 595.59375 L 1160.710938 575.035156 Z M 238.230469 787.34375 L 194.234375 787.34375 L 194.234375 674.59375 Z M 274.195312 203.226562 L 285.285156 323.644531 L 243.328125 311.660156 Z M 194.234375 1324.644531 L 194.234375 812.695312 L 1255.175781 812.695312 L 1255.175781 1324.644531 Z M 194.234375 1324.644531 " fill-opacity="1" fill-rule="nonzero"/></svg>